<?xml version="1.0" encoding="iso-8859-1"?>
<!-- Generator: Adobe Illustrator 19.0.0, SVG Export Plug-In . SVG Version: 6.00 Build 0)  -->
<svg version="1.1" id="Layer_1" xmlns="http://www.w3.org/2000/svg" xmlns:xlink="http://www.w3.org/1999/xlink" x="0px" y="0px"
	 viewBox="0 0 512 512" style="enable-background:new 0 0 512 512;" xml:space="preserve">
<path style="fill:#FFCD54;" d="M512,256.006C512,397.402,397.394,512.004,256.004,512C114.606,512.004,0,397.402,0,256.006
	C-0.007,114.61,114.606,0,256.004,0C397.394,0,512,114.614,512,256.006z"/>
<path style="fill:#F4BA41;" d="M512,256.005c0-3.914-0.122-7.798-0.294-11.668c-0.267-0.27-0.532-0.545-0.802-0.802
	C510.4,243.031,349.401,81.979,349.02,81.612c-12.581-13.25-26.645-20.335-39.07-23.959c-41.022-11.974-86.061,6.35-97.707,19.122
	c-16.612,18.201-76.782,70.688-77.391,71.214c-3.506,3.057-3.872,8.382-0.815,11.892c0.334,0.382,0.777,0.58,1.159,0.889
	c0.145,0.199,0.192,0.438,0.357,0.628c0.334,0.382,59.505,59.389,59.665,59.545c2.143,11.626,4.56,19.62,4.857,20.572
	c0.514,1.65,1.58,2.907,2.829,3.919c0.433,0.595,0.957,1.063,1.518,1.518c0.433,0.595,66.167,66.275,66.73,66.73
	c0.075,0.102,0.107,0.241,0.186,0.34c-1.902,1.372-3.809,2.723-5.78,3.789c-5.137,2.779-10.163,4.25-15.017,4.989
	c-0.043-0.036-0.081-0.075-0.125-0.11c-0.422-0.601-63.145-63.234-63.697-63.697c-1.957-2.783-5.447-4.237-8.976-3.327
	c-4.502,1.178-7.197,5.781-6.016,10.288c5.133,19.622,14.977,50.489,28.387,62.665c0.477,0.494,58.558,58.596,59.071,59.066
	c0.051,0.052,0.101,0.111,0.153,0.163c-8.42,12.126-11.81,18.443-12.466,22.238c-3.837,5.593-12.523,16.3-26.85,23.621
	c-0.091-0.069-0.208-0.101-0.303-0.166c-0.465-0.55-73.713-73.893-74.314-74.314c-1.1-1.303-2.487-2.382-4.269-2.827
	c-4.539-1.135-9.093,1.605-10.225,6.123c-1.333,5.325-5.831,49.29,13.793,75.881c2.345,3.178,4.951,5.935,7.764,8.352
	c0.517,0.487,60.13,60.205,60.666,60.666c0.388,0.366,0.759,0.763,1.14,1.14c13.585,2.227,27.513,3.438,41.73,3.438
	C397.394,512.004,512,397.401,512,256.005z"/>
<g>
	<path style="fill:#F4F6F9;" d="M381.666,152.455c-11.347-65.202-45.133-87.98-71.468-95.686
		c-41.238-12.024-83.831,7.531-98.142,19.222c-19.171,15.662-77.142,71.045-77.734,71.553c-3.556,3.048-3.895,8.383-0.847,11.94
		c3.048,3.556,8.383,3.895,11.94,0.847c2.54-2.202,58.834-57.179,79.174-72.908c13.818-10.685,46.15-24.557,80.952-14.395
		c31.67,9.23,51.654,36.92,59.529,82.392c0.169,0.762,13.125,77.311-56.65,167.747c-46.996,60.968-55.327,78.92-62.736,87.917
		c-7.652,9.291-25.329,33.088-63.18,31.056c-10.246-0.508-18.206-4.573-24.133-12.194c-15.581-20.069-12.617-58.004-11.601-62.831
		c1.101-4.573-1.694-9.145-6.266-10.246c-4.488-1.101-9.061,1.609-10.161,6.097c-1.355,5.335-5.843,49.537,13.887,76.21
		c9.061,12.278,21.678,18.968,37.428,19.815c1.948,0.085,3.726,0.169,5.589,0.169c53.347,0,76.041-42.424,77.057-44.287
		c0.677-1.355,17.02-28.875,57.581-81.376C396.146,237.218,382.344,155.757,381.666,152.455z"/>
	<path style="fill:#F4F6F9;" d="M187.669,261.774c-1.185-4.488-5.843-7.198-10.331-6.012c-4.488,1.185-7.198,5.843-6.012,10.331
		c6.266,23.964,23.551,74.271,71.976,74.686c10.585,0.085,21.085-2.625,30.399-7.621c24.557-13.294,44.033-44.117,57.92-91.706
		c13.548-46.488,11.432-82.561-6.436-107.202c-21-28.96-55.633-30.484-57.242-30.484c-27.52-0.339-47.928,8.298-60.884,25.742
		c-29.383,39.46-8.129,109.15-7.198,112.114c1.355,4.488,6.182,6.944,10.585,5.589c4.488-1.355,6.944-6.182,5.589-10.585l0,0
		c-0.169-0.677-19.561-64.44,4.657-96.956c9.653-13.21,25.065-19.391,46.827-19.137c0.254,0,27.774,1.185,43.948,23.54
		c14.649,20.153,15.919,51.315,3.895,92.553c-12.617,43.101-28.766,71.592-49.791,81.545
		C222.463,338.577,194.697,288.617,187.669,261.774z"/>
	<path style="fill:#F4F6F9;" d="M253.668,283.024c-2.104,0-4.194-0.921-5.612-2.682c-0.476-0.591-11.597-14.73-7.27-37.064
		c2.12-10.937,10.66-15.75,18.195-19.995c7.796-4.393,14.529-8.187,16.165-18.408c1.937-12.107-0.316-21.979-6.697-29.341
		c-4.516-5.211-9.573-7.287-9.622-7.306c-3.689-1.4-5.545-5.526-4.145-9.215c1.4-3.689,5.522-5.547,9.215-4.145
		c10.995,4.172,30.446,20.466,25.358,52.265c-2.724,17.029-14.593,23.717-23.259,28.6c-6.59,3.714-10.36,6.021-11.182,10.265
		c-3.018,15.573,4.113,25.047,4.419,25.443c2.474,3.074,1.964,7.543-1.109,10.017C256.812,282.513,255.235,283.024,253.668,283.024z
		"/>
</g>
<g>
</g>
<g>
</g>
<g>
</g>
<g>
</g>
<g>
</g>
<g>
</g>
<g>
</g>
<g>
</g>
<g>
</g>
<g>
</g>
<g>
</g>
<g>
</g>
<g>
</g>
<g>
</g>
<g>
</g>
</svg>
