<?xml version="1.0" encoding="iso-8859-1"?>
<!-- Generator: Adobe Illustrator 19.0.0, SVG Export Plug-In . SVG Version: 6.00 Build 0)  -->
<svg version="1.1" id="Layer_1" xmlns="http://www.w3.org/2000/svg" xmlns:xlink="http://www.w3.org/1999/xlink" x="0px" y="0px"
	 viewBox="0 0 512 512" style="enable-background:new 0 0 512 512;" xml:space="preserve">
<path style="fill:#9ED368;" d="M0,256.006C0,397.402,114.606,512.004,255.996,512C397.394,512.004,512,397.402,512,256.006
	C512.009,114.61,397.394,0,255.996,0C114.606,0,0,114.614,0,256.006z"/>
<path style="fill:#8BC052;" d="M510.802,280.553c-0.279-0.278-0.558-0.559-0.838-0.838
	c-0.507-0.512-102.621-102.623-103.128-103.129c-1.908-1.933-3.815-3.822-5.713-5.635c-19.732-18.871-48.598-41.364-74.058-41.364
	c-21.924,0-33.805,7.292-45.356,14.37c-7.234,4.435-13.481,8.262-25.71,8.262s-18.477-3.827-25.76-8.287
	c-11.493-7.054-23.373-14.345-45.314-14.345c-25.443,0-54.314,22.492-74.049,41.364c-27.479,26.254-57.137,66.235-57.137,85.04
	c0,10.033,6.441,22.805,19.139,37.965c5.053,6.043,11.079,12.547,17.662,19.151c0.499,0.506,195.135,195.134,195.641,195.641
	c0.415,0.42,0.839,0.842,1.262,1.262C405.974,495.487,499.433,400.03,510.802,280.553z"/>
<g>
	<path style="fill:#F4F6F9;" d="M401.123,170.951c-19.731-18.871-48.598-41.364-74.058-41.364c-21.924,0-33.805,7.292-45.356,14.369
		c-7.234,4.436-13.481,8.262-25.711,8.262c-12.23,0-18.477-3.827-25.76-8.288c-11.493-7.053-23.373-14.345-45.314-14.345
		c-25.443,0-54.314,22.493-74.049,41.364c-27.479,26.254-57.137,66.235-57.137,85.04c0,10.032,6.439,22.805,19.139,37.965
		c9.6,11.481,22.591,24.615,36.578,36.97c25.295,22.361,42.067,35.092,63.527,42.614c21.381,7.498,44.734,8.871,83.015,8.871
		c38.277,0,61.626-1.375,83.02-8.871c21.481-7.539,38.241-20.262,63.515-42.614c13.987-12.362,26.978-25.488,36.587-36.97
		c12.699-15.184,19.139-27.957,19.139-37.965C458.26,237.186,428.604,197.205,401.123,170.951z M426.192,283.142
		c-9.082,10.855-21.447,23.341-34.821,35.158c-24.147,21.348-38.973,32.682-57.926,39.34c-19.102,6.691-41.068,7.917-77.444,7.917
		c-36.381,0-58.347-1.227-77.436-7.917c-18.941-6.642-33.78-17.983-57.948-39.34c-13.37-11.819-25.731-24.303-34.813-35.167
		c-14.11-16.847-15.209-25.036-15.209-27.142c0-9.25,20.71-43.026,51.927-72.86c24.389-23.315,47.137-36.689,62.404-36.689
		c17.18,0,26.134,5.498,36.558,11.892c7.81,4.782,17.534,10.74,34.516,10.74s26.706-5.958,34.582-10.781
		c10.366-6.362,19.319-11.851,36.483-11.851c15.279,0,38.027,13.374,62.412,36.689c31.216,29.825,51.927,63.61,51.927,72.86
		C441.405,258.098,440.306,266.271,426.192,283.142z"/>
	<path style="fill:#F4F6F9;" d="M411.341,254.297c-11.703-5.613-25.282-15.168-38.418-24.402
		c-24.048-16.913-46.763-32.887-66.391-32.887c-13.115,0-20.617,2.707-27.871,5.325c-7.017,2.534-13.642,4.93-26.875,4.93
		c-13.23,0-19.859-2.395-26.875-4.93c-7.254-2.618-14.756-5.325-27.871-5.325c-17.534,0-35.953,13.299-55.45,27.39
		c-15.666,11.316-31.862,23.02-48.537,28.945c-3.863,1.375-6.18,5.333-5.482,9.374c0.695,4.041,4.202,6.995,8.304,6.995
		c15.674,0,31.233,9.465,47.709,19.481c19.892,12.09,42.438,25.801,70.202,25.801c6.353,0,14.311-2.156,22.735-4.428
		c6.7-1.819,14.287-3.868,18.444-3.868c0.02,0,0.045,0,0.066,0c3.814,0.025,10.909,2.033,17.168,3.81
		c8.102,2.304,15.76,4.477,21.946,4.477c24.5,0,48.59-13.876,69.847-26.122c16.55-9.538,32.183-18.542,43.701-18.542
		c3.934,0,7.345-2.724,8.218-6.559C416.784,259.926,414.889,255.991,411.341,254.297z M355.579,274.254
		c-20.373,11.736-41.438,23.875-61.433,23.875c-3.839,0-11.011-2.033-17.341-3.835c-8.003-2.271-15.563-4.419-21.678-4.452
		c-6.555,0.337-14.481,2.148-23.003,4.452c-6.667,1.803-14.222,3.843-18.336,3.843c-23.04,0-42.565-11.868-61.445-23.348
		c-10.349-6.295-20.378-12.395-30.764-16.55c10.539-6.206,20.575-13.456,29.883-20.18c17.226-12.444,33.492-24.196,45.578-24.196
		c10.164,0,15.719,2.009,22.147,4.329c7.699,2.773,16.419,5.925,32.599,5.925c16.185,0,24.903-3.152,32.599-5.925
		c6.432-2.321,11.983-4.329,22.147-4.329c14.295,0,35.85,15.159,56.697,29.818c7.283,5.127,14.703,10.346,21.999,15.036
		C375.709,262.658,365.801,268.37,355.579,274.254z"/>
</g>
<g>
</g>
<g>
</g>
<g>
</g>
<g>
</g>
<g>
</g>
<g>
</g>
<g>
</g>
<g>
</g>
<g>
</g>
<g>
</g>
<g>
</g>
<g>
</g>
<g>
</g>
<g>
</g>
<g>
</g>
</svg>
