<?xml version="1.0" encoding="iso-8859-1"?>
<!-- Generator: Adobe Illustrator 19.0.0, SVG Export Plug-In . SVG Version: 6.00 Build 0)  -->
<svg version="1.1" id="Layer_1" xmlns="http://www.w3.org/2000/svg" xmlns:xlink="http://www.w3.org/1999/xlink" x="0px" y="0px"
	 viewBox="0 0 512 512" style="enable-background:new 0 0 512 512;" xml:space="preserve">
<circle style="fill:#FFEDB5;" cx="256" cy="256" r="256"/>
<path style="fill:#FEE187;" d="M497.447,341.237L384.102,227.892l-16.622,0.31l-17.76-6.051h-15.701l-29.78,35.397l29.744,29.744
	l-10.976,10.976L204.966,179.764l-38.505,63.628l-32.785,79.841l-22.3,11.186l175.699,175.699
	C384.858,498.285,465.641,431.328,497.447,341.237z"/>
<path style="fill:#273B7A;" d="M192.562,182.793c2.903-6.351,11.936-6.318,14.791,0.053l53.153,118.568
	c5.661,12.783,10.314,20.832,13.955,24.147c2.75,2.508,6.634,3.965,11.65,4.368v4.489h-79.603v-4.489h3.277
	c6.389,0,10.88-0.89,13.469-2.67c1.779-1.293,2.67-3.155,2.67-5.58c0-1.457-0.243-2.953-0.729-4.489
	c-0.162-0.729-1.376-3.763-3.639-9.1l-8.737-20.508h-58.125l-6.916,16.017c-2.265,5.341-3.4,9.749-3.4,13.228
	c0,4.611,1.86,8.009,5.582,10.192c2.184,1.295,7.564,2.265,16.137,2.912v4.489h-54.724v-4.489c5.904-0.89,10.757-3.337,14.562-7.342
	c3.801-4.003,8.494-12.274,14.076-24.816L192.562,182.793z M208.694,278.6l-24.512-56.667l-25.24,56.667H208.694z"/>
<path style="fill:#121149;" d="M274.461,325.561c-3.639-3.315-8.294-11.364-13.955-24.147l-53.153-118.568
	c-1.474-3.289-4.594-4.873-7.668-4.779v79.712l9.007,20.823h-9.007v8.98h13.131l8.737,20.508c2.264,5.339,3.479,8.371,3.639,9.101
	c0.486,1.538,0.729,3.034,0.729,4.489c0,2.426-0.891,4.287-2.67,5.58c-2.589,1.781-7.078,2.67-13.469,2.67h-3.277v4.489h79.603
	v-4.489C281.095,329.525,277.211,328.07,274.461,325.561z"/>
<path style="fill:#273B7A;" d="M359.888,317.673c-13.833,12.216-26.253,18.323-37.252,18.323c-6.473,0-11.852-2.122-16.139-6.37
	s-6.43-9.566-6.43-15.956c0-8.656,3.72-16.443,11.164-23.359c7.442-6.918,23.664-16.119,48.661-27.607v-11.405
	c0-8.575-0.467-13.974-1.396-16.2c-0.931-2.224-2.691-4.165-5.28-5.825c-2.589-1.657-5.501-2.486-8.735-2.486
	c-5.26,0-9.587,1.174-12.984,3.518c-2.105,1.457-3.155,3.155-3.155,5.096c0,1.698,1.133,3.805,3.4,6.309
	c3.072,3.481,4.611,6.839,4.611,10.073c0,3.965-1.477,7.342-4.429,10.131c-2.955,2.791-6.816,4.187-11.59,4.187
	c-5.096,0-9.364-1.536-12.802-4.611c-3.439-3.074-5.156-6.673-5.156-10.8c0-5.825,2.305-11.385,6.916-16.686
	c4.611-5.296,11.042-9.363,19.294-12.193c8.251-2.832,16.825-4.248,25.724-4.248c10.757,0,19.273,2.286,25.541,6.856
	c6.27,4.572,10.333,9.525,12.195,14.865c1.133,3.398,1.698,11.205,1.698,23.419v44.048c0,5.179,0.202,8.435,0.609,9.768
	c0.403,1.334,1.01,2.327,1.82,2.974c0.809,0.65,1.739,0.971,2.791,0.971c2.103,0,4.248-1.496,6.43-4.489l3.639,2.912
	c-4.046,5.989-8.232,10.335-12.559,13.043c-4.329,2.71-9.242,4.065-14.743,4.065c-6.473,0-11.53-1.517-15.169-4.551
	C362.924,328.411,360.693,323.824,359.888,317.673z M359.888,308.817v-37.981c-9.79,5.746-17.07,11.891-21.842,18.444
	c-3.155,4.368-4.732,8.778-4.732,13.226c0,3.722,1.333,6.999,4.003,9.83c2.022,2.184,4.853,3.275,8.495,3.275
	C349.855,315.611,354.547,313.347,359.888,308.817z"/>
<path style="fill:#121149;" d="M405.39,315.975c-2.184,2.993-4.329,4.489-6.43,4.489c-1.052,0-1.982-0.322-2.791-0.971
	c-0.81-0.646-1.415-1.638-1.82-2.974c-0.405-1.333-0.609-4.589-0.609-9.768v-44.046c0-12.214-0.565-20.021-1.698-23.419
	c-1.862-5.341-5.927-10.293-12.195-14.865c-6.163-4.491-14.508-6.765-25.009-6.84v12.876c1.708,1.381,2.934,2.925,3.653,4.644
	c0.929,2.226,1.396,7.627,1.396,16.2v11.405c-1.729,0.795-3.405,1.576-5.049,2.348v8.952c1.61-1.069,3.274-2.127,5.049-3.17v37.981
	c-1.755,1.489-3.434,2.708-5.049,3.708v9.383c1.662-1.321,3.344-2.731,5.049-4.236c0.807,6.149,3.034,10.738,6.673,13.772
	c3.639,3.034,8.695,4.551,15.169,4.551c5.499,0,10.414-1.355,14.743-4.065c4.327-2.708,8.513-7.056,12.559-13.043L405.39,315.975z"
	/>
<g>
</g>
<g>
</g>
<g>
</g>
<g>
</g>
<g>
</g>
<g>
</g>
<g>
</g>
<g>
</g>
<g>
</g>
<g>
</g>
<g>
</g>
<g>
</g>
<g>
</g>
<g>
</g>
<g>
</g>
</svg>
