<?xml version="1.0" encoding="iso-8859-1"?>
<!-- Generator: Adobe Illustrator 19.0.0, SVG Export Plug-In . SVG Version: 6.00 Build 0)  -->
<svg version="1.1" id="Layer_1" xmlns="http://www.w3.org/2000/svg" xmlns:xlink="http://www.w3.org/1999/xlink" x="0px" y="0px"
	 viewBox="0 0 512.002 512.002" style="enable-background:new 0 0 512.002 512.002;" xml:space="preserve">
<path style="fill:#9ED368;" d="M512.001,256.006c0,141.395-114.606,255.998-255.996,255.994
	C114.607,512.004,0.001,397.402,0.001,256.006C-0.006,114.61,114.607,0,256.005,0C397.395,0,512.001,114.614,512.001,256.006z"/>
<path style="fill:#8BC052;" d="M512.001,256.005c0-13.814-1.129-27.362-3.234-40.583c-0.096-0.084-0.169-0.19-0.271-0.271
	c-0.34-0.429-0.708-0.798-1.137-1.137c-0.34-0.429-117.865-117.954-118.293-118.293c-1.298-1.637-3.217-2.755-5.471-2.755H128.409
	c-3.918,0-7.089,3.173-7.089,7.088c0,2.253,1.117,4.173,2.754,5.471c0.34,0.429,30.034,30.187,30.323,30.449
	c-2.74,0.98-4.724,3.535-4.724,6.611c0,2.252,1.117,4.172,2.754,5.47c0.34,0.429,29.735,29.853,29.843,29.972h-53.862
	c-3.918,0-7.089,3.173-7.089,7.089c0,2.253,1.117,4.173,2.754,5.471c0.34,0.43,36.656,36.87,36.845,37.06H92.966
	c-3.918,0-7.089,3.173-7.089,7.089c0,2.253,1.117,4.173,2.754,5.471c0.34,0.429,37.09,37.182,37.509,37.518
	c-2.788,0.954-4.821,3.52-4.821,6.63c0,2.253,1.117,4.173,2.754,5.471c0.34,0.43,30.034,30.187,30.323,30.449
	c-2.74,0.98-4.724,3.535-4.724,6.611c0,2.252,1.117,4.172,2.754,5.47c0.34,0.429,29.734,29.854,29.842,29.972h-53.862
	c-3.918,0-7.089,3.173-7.089,7.089c0,2.253,1.117,4.173,2.754,5.471c0.34,0.43,29.733,29.853,29.842,29.971H92.966
	c-3.918,0-7.089,3.173-7.089,7.089c0,2.253,1.117,4.173,2.754,5.471c0.34,0.429,78.054,78.143,78.484,78.483
	c0.113,0.143,0.258,0.249,0.379,0.379c27.584,10.162,57.395,15.722,88.509,15.721C397.395,512.004,512.001,397.401,512.001,256.005z
	"/>
<g>
	<path style="fill:#F4F6F9;" d="M419.036,404.858H92.966c-3.918,0-7.088,3.173-7.088,7.088s3.17,7.088,7.088,7.088h326.069
		c3.918,0,7.088-3.174,7.088-7.088S422.954,404.858,419.036,404.858z"/>
	<path style="fill:#F4F6F9;" d="M128.409,107.142h255.185c3.918,0,7.088-3.174,7.088-7.088c0-3.914-3.17-7.088-7.088-7.088H128.409
		c-3.918,0-7.088,3.174-7.088,7.088C121.321,103.968,124.491,107.142,128.409,107.142z"/>
	<path style="fill:#F4F6F9;" d="M156.763,135.497c-3.918,0-7.088,3.174-7.088,7.088c0,3.915,3.17,7.088,7.088,7.088h191.389
		c3.918,0,7.088-3.174,7.088-7.088c0-3.915-3.17-7.088-7.088-7.088C348.151,135.497,156.763,135.497,156.763,135.497z"/>
	<path style="fill:#F4F6F9;" d="M128.409,192.204h255.185c3.918,0,7.088-3.174,7.088-7.088c0-3.915-3.17-7.088-7.088-7.088H128.409
		c-3.918,0-7.088,3.174-7.088,7.088C121.321,189.03,124.491,192.204,128.409,192.204z"/>
	<path style="fill:#F4F6F9;" d="M92.966,241.823h326.069c3.918,0,7.088-3.174,7.088-7.088c0-3.915-3.17-7.088-7.088-7.088H92.966
		c-3.918,0-7.088,3.174-7.088,7.088C85.878,238.65,89.049,241.823,92.966,241.823z"/>
	<path style="fill:#F4F6F9;" d="M383.594,277.265H128.409c-3.918,0-7.088,3.173-7.088,7.088c0,3.915,3.17,7.088,7.088,7.088h255.185
		c3.918,0,7.088-3.174,7.088-7.088S387.511,277.265,383.594,277.265z"/>
	<path style="fill:#F4F6F9;" d="M348.151,333.973c3.918,0,7.088-3.174,7.088-7.088c0-3.915-3.17-7.088-7.088-7.088H156.763
		c-3.918,0-7.088,3.174-7.088,7.088c0,3.915,3.17,7.088,7.088,7.088H348.151z"/>
	<path style="fill:#F4F6F9;" d="M121.321,369.415c0,3.915,3.17,7.088,7.088,7.088h255.185c3.918,0,7.088-3.173,7.088-7.088
		c0-3.915-3.17-7.088-7.088-7.088H128.409C124.491,362.326,121.321,365.501,121.321,369.415z"/>
</g>
<g>
</g>
<g>
</g>
<g>
</g>
<g>
</g>
<g>
</g>
<g>
</g>
<g>
</g>
<g>
</g>
<g>
</g>
<g>
</g>
<g>
</g>
<g>
</g>
<g>
</g>
<g>
</g>
<g>
</g>
</svg>
